<?xml version="1.0" encoding="utf-8"?>
<!-- Generator: Adobe Illustrator 26.4.1, SVG Export Plug-In . SVG Version: 6.00 Build 0)  -->
<svg version="1.1" id="Layer_1" xmlns="http://www.w3.org/2000/svg" xmlns:xlink="http://www.w3.org/1999/xlink" x="0px" y="0px"
	 viewBox="0 0 410.06 260.7" style="enable-background:new 0 0 410.06 260.7;" xml:space="preserve">
<g>
	<path d="M180.09,237.64c-30.08-0.05-59.7-3.37-88.49-12.52c-5.76-1.83-11.33-4.08-16.51-7.2c-14.45-8.7-21.4-25.36-17.03-41.66
		c1.01-3.75,0.43-5.92-2.68-8.24c-4.06-3.03-7.26-6.96-9.16-11.85c-1.39-3.59-2.43-7.86-0.53-10.75c3.88-5.9,1.57-8.36-3.29-11.93
		c-7.4-5.43-8.03-13.62-2.31-21.68c6.86-9.66,15.91-16.97,26.2-22.76c1.68-0.94,3.28-1.57,4.14-3.68
		c7.49-18.56,21.33-31.52,38.45-40.7c33.45-17.93,69.51-23.72,107.14-20.97c31.81,2.32,60.22,14.48,87.03,30.71
		c19.19,11.61,33.2,27.48,36.29,50.79c0.35,2.62,2.08,2.99,3.78,3.74c10.04,4.45,17.88,11.6,24.56,20.11
		c2.77,3.53,4.97,7.43,5.73,11.96c1.39,8.24-1.01,11.55-9.31,12.68c-2.11,0.29-3.96-0.09-4.07,3.33
		c-0.25,7.7-4.47,13.47-10.48,17.99c-1.91,1.44-3.53,2.67-2.99,5.62c2.35,12.77-3.48,22.25-12.89,29.9
		c-9.69,7.87-21.6,10.13-33.44,12.53C260.58,231.13,220.67,237.12,180.09,237.64 M77.83,91.61c-0.17,3.82,1.38,7.76,3.7,11.44
		c5.2,8.23,13.04,13.25,21.65,17.1c21.37,9.54,43.83,15.27,66.95,18.62c1.82,0.26,2.97,0.43,4.29-1.53
		c3.11-4.58,5.53-4.38,8.37,0.69c1.12,2,2.23,2.7,4.4,2.93c22.14,2.41,44.13,0.68,66.08-2.22c4.19-0.55,8.87-0.8,9.22-7.04
		c0.12-2.04,1.99-3.77,4.54-3.78c3-0.01,4.11,2.1,4.38,4.52c0.29,2.54,1.31,2.68,3.46,2.05c13.2-3.86,26.52-7.31,39.13-13.01
		c3.58-1.61,6.6-2.93,5.74-7.82c-0.38-2.13,1.08-4.42,2.86-5.47c4.69-2.77,3.77-6.3,2.23-10.32c-1.39-3.65-2.85-7.25-5.05-10.47
		c-4.49-6.56-9.72-12.22-16.27-17.09c-4.45-3.31-7.08-6.11-12.38-1.94c-1.9,1.49-5.28,1.15-7.6-0.97c-1.66-1.52-2.15-3.87-1.11-5.33
		c3.63-5.11-0.52-6.72-3.69-7.23c-3.71-0.6-5.94-3.18-8.98-4.54c-27.09-12.06-55.41-17.53-85.09-15.7
		c-2.69,0.17-4.31,0.47-4.01,3.86c0.32,3.73-2.19,5.74-5.64,6.19c-3.25,0.42-6.23-1.2-6.7-4.31c-0.66-4.36-3.19-3.55-5.81-3.05
		c-11.64,2.22-23.16,4.95-34.21,9.3c-16.58,6.54-32.2,14.68-43.92,28.66C80.56,79.69,77.81,84.8,77.83,91.61 M338.25,182.52
		c-0.51-0.05-0.92-0.21-1.23-0.1c-28.56,9.95-58.34,12.73-88.21,14.31c-36.71,1.94-73.44,2.32-110.05-2.13
		c-24.53-2.98-48.78-7.01-71.15-18.39c-1.03-0.53-2.4-2.67-3.79-0.27c-1.12,1.93-0.27,3.33,1.31,4.46c3.19,2.28,6.79,3.71,10.5,4.88
		c6.71,2.11,13.44,4.13,20.16,6.2c-11.68-0.64-22.34-4.67-32.82-9.81c-1.54,17.04,6.53,28.6,24.47,34.9
		c23.26,8.16,47.39,11.93,71.93,12.97c47.53,2.02,94.08-5.68,140.47-14.64c10.93-2.11,21.59-5.07,30.37-12.41
		C336.43,197.3,339.69,190.83,338.25,182.52 M315.05,158.56c6.9,0.67,14.36-0.99,21.05-5.55c7.31-4.99,14.96-9.08,24.06-9.48
		c2.44-0.11,3.01-0.82,1.82-3.2c-4.29-8.56-10.3-15.47-18.44-20.57c-1.8-1.13-2.94-1.12-4.34,0.72c-4.63,6.07-11.18,9.5-18.02,12.43
		c-32.33,13.85-66.14,20.99-101.25,21.84c-37.14,0.91-73.17-5.13-107.61-19.18c-16.46-6.72-31.17-16.12-38.94-33.23
		c-1.92-4.23-4.37-3.65-7.31-1.56c-7.36,5.21-13.46,11.74-19.42,18.42c-5.1,5.71-4.83,8,1.8,11.95c1.5,0.89,3.05,1.74,4.68,2.35
		c7.79,2.92,13.57,7.96,17.56,15.34c3.38,6.24,8.95,9.47,16.12,10c6.06,0.45,12.06-0.28,18.02-1.04
		c10.75-1.37,20.62,0.28,28.86,7.68c11.73,10.53,25.17,12.65,39.66,7.76c13.62-4.6,27.21-4.63,40.7-0.61
		c16.87,5.04,32.47,3.15,47.56-5.86c6.98-4.16,14.48-7.41,22.65-8.92C294.23,156.05,304.04,158.45,315.05,158.56 M264.18,189.08
		c6.57-0.97,13.11,0.01,16.4-2.81c7.7-6.6,15.65-12.84,24.69-19.28c-6.92-1.04-12.18-0.89-17.55,3.16
		C280.08,175.9,271.79,180.75,264.18,189.08 M284.25,185.67c16.55,2.26,25.53-7.23,34.69-18.17
		C303.71,167.07,295.55,178.05,284.25,185.67 M286.95,166.78c-14.39,2.36-30.63,12.84-35.96,22.81c3.93-0.18,8.65,0.86,11.17-1.72
		C269.55,180.31,277.71,173.71,286.95,166.78 M180.04,190.27c11.71,4.48,17.32-5.98,26.16-10.16
		C196.44,177.25,186.28,181.4,180.04,190.27 M323.16,179.27c3.95-0.9,8.14-1.05,10.04-3.71c4.84-6.77,11.37-11.47,17.71-16.48
		c0.95-0.76,1.9-1.6,1.1-2.86c-0.83-1.3-2.2-0.73-3.1-0.15C339.25,162.28,329.35,168.24,323.16,179.27 M100.62,180.22
		c3.39,1.36,7.01,3.29,9.28,2.03c6.22-3.48,13.04-5.57,19.47-8.81C124.43,168.6,114.88,170.86,100.62,180.22 M120.6,168.02
		c-7.97-3.65-24.36,1.9-30.53,10.17c2.98-0.58,5.36,2.61,8.03,0.58C104.74,173.74,112.21,170.47,120.6,168.02 M167.45,190.01
		c3.61-0.01,6.88,2.17,9.39-0.49c3.67-3.88,7.7-7.31,12.36-10.93C175.96,180.55,173.13,182,167.45,190.01 M112.46,182.37
		c10.16,5.84,16.39-0.59,23.22-4.62C127.22,174.57,120.73,180.31,112.46,182.37 M328.06,166.75c-8.07,3.03-13.21,9.69-19.81,15.18
		C321.04,184.08,322.52,172.9,328.06,166.75 M195.3,190.18c10.4,3.49,15.2-3.44,21.96-7.91
		C207.53,179.51,202.51,186.16,195.3,190.18 M79.11,173.96c3.75,1.05,6.28,3.76,9.08,1.68c4.6-3.42,9.52-6.32,15.19-9.66
		C94.12,165.67,86.97,168.72,79.11,173.96 M227.23,184.49c-7.3-1.87-11.64,2.22-17.18,6.01
		C217.56,191.94,223.02,190.75,227.23,184.49 M61.42,163.45c5.43,6.19,7.27,6.24,13.55,0.49C70.65,158.68,66.05,161.54,61.42,163.45
		 M86.91,167.38c-6.56-2.9-11.66-1.87-16.21,2.2C77.06,176.47,81.13,169.36,86.91,167.38 M254.33,180.49
		c-6.62,1.71-11.89,3.69-15.5,8.81C247.25,192.58,249.93,185.88,254.33,180.49 M127.24,185.32c7.38,3.49,12.17,0.68,17.2-3.24
		C137.76,178.55,133.4,183.38,127.24,185.32 M67.78,157.91c-1.41-1.57-1.61-4.18-4.26-3.4c-2.81,0.83-6.53,0.75-7.5,4.09
		c-0.41,1.41,1.8,3.83,3.86,3.12C62.54,160.82,65.64,160.34,67.78,157.91 M167.83,184.25c-5.44-0.6-9.72,0.93-13.63,4.22
		C161.89,191.27,163.47,190.82,167.83,184.25 M238.68,185.12c-5.65-1.17-9.81,1.12-14.39,5.44
		C230.39,190.43,235.86,191.73,238.68,185.12 M63.53,151.63c-0.82-1.81-1.35-3.88-3.03-3.55c-3.16,0.6-6.29,1.92-7.88,4.97
		c-0.39,0.76,0.34,3.19,1.99,2.65C57.7,154.67,60.57,153.02,63.53,151.63 M178.29,38.49c-0.03-2.23-1.16-3.37-3.25-2.92
		c-1.76,0.38-4.68-0.99-4.79,2.48c-0.09,2.52,1.41,4.04,3.81,4.11C176.36,42.22,178.03,40.99,178.29,38.49 M154.35,184.67
		c-5.18-1.91-9.08-0.27-13.52,2.84C146.15,189.02,150.52,190,154.35,184.67 M288.36,66.23c1.96-0.11,4.71-0.55,4.64-2.9
		c-0.06-1.97-2.92-3.09-4.89-3.46c-2.28-0.42-3.33,1.58-3.48,3.62C284.45,65.91,286.25,66.21,288.36,66.23 M52.31,150.24
		c2.02-2.57,5.99-2.17,6.25-5.75c0.07-0.95-1.85-2.88-3.46-2.16C52.08,143.68,51.53,146.41,52.31,150.24 M349.19,164.32
		c-4.04,2.3-8,4.7-11.7,9.16C343.39,170.73,345.46,169.16,349.19,164.32"/>
	<path d="M113.52,89.65c7.87-0.17,10.92,2.09,10.92,8.1c0.01,6.62-4.67,11.79-10.86,12.01c-5.87,0.21-10.68-4.23-10.64-9.84
		C102.98,94.56,107.91,89.77,113.52,89.65 M120.48,99.62c0.1-5.17-2.46-6.6-5.94-6.38c-4.2,0.26-7.65,1.93-7.56,6.91
		c0.07,4,2.51,5.97,6.38,5.85C118.06,105.86,120.04,102.83,120.48,99.62"/>
	<path d="M160.21,122.31c-5.72,0.05-10.24-3.9-10.15-8.87c0.09-4.93,7.73-12.41,12.78-12.53c3.78-0.09,8.15,5.61,8.12,10.59
		C170.94,117.17,165.86,122.26,160.21,122.31 M167.22,111.29c-0.43-3.57-1.97-6.18-5.68-6.15c-3.76,0.03-8.51,5.18-8.1,8.56
		c0.46,3.83,3.35,5.03,6.66,4.93C164.76,118.48,166.82,115.51,167.22,111.29"/>
	<path d="M211.93,133.02c-6.03,0.02-9.44-3.27-9.59-9.25c-0.13-5.16,5.2-9.94,10.96-9.83c4.59,0.08,8.21,4.01,8.19,8.85
		C221.46,128.79,217.53,133,211.93,133.02 M206.15,125.3c0.13,2.71,2.19,4.95,5.4,4.46c3.47-0.53,6.62-2.6,6.38-6.91
		c-0.22-3.87-3.27-5.35-6.4-5.22C207.65,117.81,206.17,120.82,206.15,125.3"/>
	<path d="M205.21,66.25c-4.34-0.24-9.73-0.64-10.49-5.32c-0.66-4.11,4.85-5.08,8.04-6.96c0.17-0.1,0.33-0.24,0.51-0.28
		c4.02-0.77,8.07-1.65,11.53,1.57c1.84,1.71,1.77,3.89,0.7,5.87C213.32,65.19,209.6,66.45,205.21,66.25 M204.33,63.98
		c1.96,0.04,3.85-0.18,5.59-1.16c1.82-1.03,4.3-1.9,3.17-4.6c-0.94-2.25-3.2-2.43-5.46-1.99c-2.68,0.53-5.21,1.44-7.44,2.99
		c-1.01,0.71-3.07,1-2.56,2.58c0.28,0.88,2.05,1.44,3.26,1.83C201.97,63.99,203.18,63.89,204.33,63.98"/>
	<path d="M289.78,99.8c5.97-0.32,6.73,3.6,6.84,7.62c0.13,4.84-2.69,6.87-7.39,6.75c-4.34-0.11-7.79-1.41-7.86-6.42
		C281.3,103.26,285.47,99.74,289.78,99.8 M293.68,106.99c-0.26-2.29-1.27-4.64-3.95-4.74c-3.16-0.11-4.88,2.25-5.14,5.23
		c-0.26,2.97,2.2,3.34,4.34,3.53C291.58,111.26,293.47,110.22,293.68,106.99"/>
	<path d="M245.7,82.27c-4.01-0.06-7.78-3.84-7.89-7.9c-0.09-3.51,5.37-8.05,9.95-7.96c4.2,0.08,7.12,2.08,7.38,6.58
		C255.42,77.63,250.48,82.34,245.7,82.27 M252.73,73.16c-0.57-3.01-2.34-4.79-5.19-4.38c-2.94,0.42-6.6,0.94-6.6,5
		c0,3.13,1.75,5.54,5.39,5.43C250.26,79.09,252,76.56,252.73,73.16"/>
	<path d="M153.61,82.78c-3.08-0.17-5.92-1.67-6.09-6.48c-0.13-3.83,2.16-4.66,5.16-4.66c4.12,0,7.53,1.67,7.8,6.09
		C160.7,81.12,158.15,82.84,153.61,82.78 M154.12,80.85c1.63-0.51,3.93-0.64,3.7-2.89c-0.26-2.55-2.64-3.36-4.79-3.21
		c-1.44,0.1-3.99,0.05-3.68,2.62C149.66,79.96,152.04,80.35,154.12,80.85"/>
	<path d="M108.35,69.27c2.47-1.61,6.37-1.55,5.45-5.31c-0.88-3.59-4.06-1.25-6.81-1.11c1.65-3.04,3.34-4.16,5.9-2.92
		c2.31,1.11,3.68,3.08,2.93,5.62C114.9,68.69,112.66,70.28,108.35,69.27"/>
	<path d="M68.07,190.89c3.92,10.2,10.91,17.15,22.5,20.12C81.13,213.65,69.4,202.61,68.07,190.89"/>
	<path d="M316.58,203.13c9.15-2.06,14.66-7.74,17.31-16.5C334.79,196.43,326.48,204.27,316.58,203.13"/>
	<path d="M185.09,201.96c10-0.45,20.05,0.06,30.08-0.54C205.23,204.4,195.2,204.06,185.09,201.96"/>
	<path d="M151.25,169.86c14.76,2.04,27.93-7.11,42.52-5.46C179.57,166.31,166.06,173.21,151.25,169.86"/>
	<path d="M321.62,154.55c7.13-1.77,12.75-5.76,18.05-10.7c4.5-4.19,11.73-4.83,16.54-2.18c-9.76-1.51-16.32,3.88-22.92,9.64
		C330.17,154.05,326.11,155.37,321.62,154.55"/>
	<path d="M92.51,149.93c-8.4,3.76-12.78,2.51-17.43-4.32c-1.42-2.08-2.92-4.12-4.52-6.07c-1.48-1.79-3.15-3.43-5.01-5.42
		c4.09,1.53,6.86,4.44,8.82,7.69C78.6,148.84,84.18,152.07,92.51,149.93"/>
</g>
</svg>
